# xmcd
#
# Track frame offsets: 
#        150
#        15549
#        28254
#        43065
#        58777
#        80159
#        96459
#        110149
#        126520
#        140155
#
# Disc length: 2113 seconds
#
# Revision: 5
# Processed by: cddbd v1.5.2PL0 Copyright (c) Steve Scherf et al.
# Submitted via: ExactAudioCopy v1.3
#
DISCID=9c083f0a
DTITLE=Trisha Yearwood - Thinkin' About You
DYEAR=1994
DGENRE=Country
TTITLE0=Thinkin' About You
TTITLE1=Xxx's And Ooo's (An American Girl)
TTITLE2=You Can Sleep While I Drive
TTITLE3=The Restless Kind
TTITLE4=On a Bus To St. Cloud
TTITLE5=Fairytale
TTITLE6=Those Words We Said
TTITLE7=O Mexico
TTITLE8=I Wanna Go Too Far
TTITLE9=Till I Get it Right
EXTD=
EXTT0=
EXTT1=
EXTT2=
EXTT3=
EXTT4=
EXTT5=
EXTT6=
EXTT7=
EXTT8=
EXTT9=
PLAYORDER=
